<svg width="32" height="32" viewBox="0 0 32 32" fill="none" xmlns="http://www.w3.org/2000/svg">
<path d="M17.1067 2.90666C16.7592 2.74819 16.3818 2.66618 16 2.66618C15.6181 2.66618 15.2407 2.74819 14.8933 2.90666L3.46666 8.10666C3.23006 8.21098 3.0289 8.38186 2.88768 8.59847C2.74645 8.81508 2.67126 9.06808 2.67126 9.32666C2.67126 9.58524 2.74645 9.83824 2.88768 10.0549C3.0289 10.2715 3.23006 10.4423 3.46666 10.5467L14.9067 15.76C15.2541 15.9185 15.6315 16.0005 16.0133 16.0005C16.3952 16.0005 16.7726 15.9185 17.12 15.76L28.56 10.56C28.7966 10.4557 28.9978 10.2848 29.139 10.0682C29.2802 9.85157 29.3554 9.59857 29.3554 9.33999C29.3554 9.08141 29.2802 8.82841 29.139 8.6118C28.9978 8.39519 28.7966 8.22432 28.56 8.11999L17.1067 2.90666Z" stroke="#8962C5" stroke-width="2.66667" stroke-linecap="round" stroke-linejoin="round"/>
<path d="M2.66663 16C2.666 16.255 2.73852 16.5049 2.87559 16.7199C3.01266 16.935 3.20852 17.1062 3.43996 17.2133L14.9066 22.4267C15.2522 22.5832 15.6272 22.6641 16.0066 22.6641C16.386 22.6641 16.761 22.5832 17.1066 22.4267L28.5466 17.2267C28.7826 17.1206 28.9827 16.9481 29.1224 16.7303C29.2621 16.5125 29.3353 16.2587 29.3333 16" stroke="#8962C5" stroke-width="2.66667" stroke-linecap="round" stroke-linejoin="round"/>
<path d="M2.66663 22.6667C2.666 22.9217 2.73852 23.1715 2.87559 23.3866C3.01266 23.6017 3.20852 23.7729 3.43996 23.88L14.9066 29.0933C15.2522 29.2498 15.6272 29.3308 16.0066 29.3308C16.386 29.3308 16.761 29.2498 17.1066 29.0933L28.5466 23.8933C28.7826 23.7873 28.9827 23.6148 29.1224 23.397C29.2621 23.1792 29.3353 22.9254 29.3333 22.6667" stroke="#8962C5" stroke-width="2.66667" stroke-linecap="round" stroke-linejoin="round"/>
</svg>
